<svg id="Capa_1" enable-background="new 0 0 511.909 511.909" height="512" viewBox="0 0 511.909 511.909" width="512" xmlns="http://www.w3.org/2000/svg"><g><path d="m416.429 254.349c-2.302-16.923-7.269-33.22-14.6-48.343v-103.635c.001-56.448-45.922-102.371-102.37-102.371h-22.469v116.782c-6.431-.786-12.932-1.195-19.473-1.195h-3.127c-6.54 0-13.041.409-19.472 1.195v-116.782h-22.468c-56.447 0-102.37 45.923-102.37 102.371v103.635c-7.331 15.122-12.299 31.42-14.6 48.343l-25.288 185.941 185.762 71.619 185.762-71.619zm-109.438-223.96c36.379 3.778 64.839 34.619 64.839 71.981v61.119c-2.83-2.876-5.769-5.659-8.827-8.329-16.467-14.379-35.549-25.117-56.012-31.753zm-166.911 71.982c0-37.362 28.459-68.203 64.839-71.981v93.018c-20.463 6.636-39.545 17.374-56.012 31.753-3.058 2.671-5.997 5.453-8.827 8.329zm115.875 377.385-152.839-58.926 22.091-162.438c2.154-15.837 7.182-30.999 14.704-44.805h.17v-.307c7.303-13.318 16.929-25.368 28.559-35.523 23.758-20.746 54.211-32.17 85.752-32.17h3.127c31.541 0 61.995 11.425 85.752 32.17 11.63 10.155 21.257 22.205 28.56 35.523v.306h.169c7.522 13.807 12.55 28.969 14.704 44.805l22.092 162.438z"/><path d="m208.915 366.633h32.04v51.688h30v-51.688h32.039v-30h-94.079z"/></g></svg>