<?xml version="1.0" encoding="iso-8859-1"?>
<!-- Generator: Adobe Illustrator 19.0.0, SVG Export Plug-In . SVG Version: 6.00 Build 0)  -->
<svg version="1.1" id="Capa_1" xmlns="http://www.w3.org/2000/svg" xmlns:xlink="http://www.w3.org/1999/xlink" x="0px" y="0px"
	 viewBox="0 0 512 512" style="enable-background:new 0 0 512 512;" xml:space="preserve">
<g>
	<g>
		<path d="M316,0.011c-108.075,0-196,87.925-196,196c0,37.77,10.75,73.071,29.334,103.026L13.18,435.191
			C4.681,443.69,0,454.99,0,467.011s4.681,23.321,13.18,31.819c8.774,8.774,20.295,13.16,31.82,13.159
			c11.522-0.001,23.048-4.388,31.82-13.159l136.154-136.154C242.929,381.261,278.23,392.01,316,392.01c108.075,0,196-87.925,196-196
			S424.075,0.011,316,0.011z M55.606,477.617c-5.847,5.849-15.363,5.85-21.213-0.001C31.56,474.784,30,471.018,30,467.011
			s1.56-7.773,4.393-10.606L45,445.797l21.213,21.214L55.606,477.617z M87.426,445.798l-21.213-21.214l58.161-58.161l21.213,21.214
			L87.426,445.798z M166.801,366.424l-21.213-21.214l21.687-21.687c6.523,7.597,13.616,14.69,21.214,21.214L166.801,366.424z
			 M316,362.011c-91.533,0-166-74.467-166-166s74.467-166,166-166s166,74.467,166,166S407.533,362.011,316,362.011z"/>
	</g>
</g>
<g>
	<g>
		<path d="M316,51.011c-79.953,0-145,65.047-145,145s65.047,145,145,145s145-65.047,145-145S395.953,51.011,316,51.011z
			 M316,311.011c-63.411,0-115-51.589-115-115s51.589-115,115-115s115,51.589,115,115S379.411,311.011,316,311.011z"/>
	</g>
</g>
<g>
</g>
<g>
</g>
<g>
</g>
<g>
</g>
<g>
</g>
<g>
</g>
<g>
</g>
<g>
</g>
<g>
</g>
<g>
</g>
<g>
</g>
<g>
</g>
<g>
</g>
<g>
</g>
<g>
</g>
</svg>
